<svg id="Ebene_1" data-name="Ebene 1" xmlns="http://www.w3.org/2000/svg" width="600" height="94" viewBox="0 0 600 94"><defs><style>.cls-1{fill:#9e9e9e;}</style></defs><title>LINK-Mobility-logo-white</title><path class="cls-1" d="M105.016,2.67C98.9179.3054,91.5111,1.3277,85.4471,3.2682a34.21,34.21,0,0,0-8.96,4.2707c-2.5732,1.7675-5.2777,4.1986-6.0534,7.3494-1.7676,7.18,8.38,8.8118,13.2912,8.755a37.4478,37.4478,0,0,0,19.651-5.7723c2.8251-1.8383,5.9722-4.4949,6.6818-7.9685.7262-3.5552-2.0035-6.0485-5.0422-7.2322"/><path class="cls-1" d="M99.4106,37.0087a23.705,23.705,0,0,0-11.0273-3.8612c-4.2385-.4548-8.5.12-12.7505-.3047-6.4683-.6458-15.9126-3.089-17.43-10.58a10.3064,10.3064,0,0,1,.6024-5.6975c.67-1.7533,1.9245-3.3769,1.5745-5.36-.6706-3.8-5.9045-4.0539-8.8866-3.8307a33.3316,33.3316,0,0,0-12.6762,3.84c-3.6339,1.8862-7.3914,4.4353-9.5914,7.9763-.93,1.4965-1.6414,3.4336-.8592,5.147a5.4565,5.4565,0,0,0,3.9563,2.6856,21.2876,21.2876,0,0,0,5.8067.1866,29.3329,29.3329,0,0,1,5.9852.297,16.2557,16.2557,0,0,1,9.5689,4.6707,13.195,13.195,0,0,1,3.155,9.9492,22.2131,22.2131,0,0,1-1.1892,5.61,47.53,47.53,0,0,0-2.1608,6.2011,13.86,13.86,0,0,0,2.5084,11.0891c4.8417,6.3821,13.8039,8.04,21.3408,7.3526a36.1238,36.1238,0,0,0,22.23-10.167c5.4734-5.5687,8.7262-14.3106,3.8185-21.3064a15.943,15.943,0,0,0-3.976-3.8981"/><path class="cls-1" d="M40.2229,37.5467c-2.7777-2.25-6.741-2.4486-10.1394-2.026A33.1419,33.1419,0,0,0,19.1718,39.08C12.4643,42.52,5.6779,48.0822,2.79,55.2418c-1.3012,3.2254-1.7152,7.269.8134,10.0267,2.3579,2.5716,6.219,3.1092,9.5264,2.89C20.8981,67.6436,28.5047,63.565,34.22,58.44A28.441,28.441,0,0,0,41.7648,48.413c1.4832-3.6088,1.7751-8.1652-1.5419-10.8663"/><path class="cls-1" d="M142.2967,71.7805h5.7315V63.868h-4.094c-3.7305,0-5.0046-1.8212-5.0046-5.3719V7.0073h-9.2785v52.04c0,6.822,3.8223,12.7334,12.6456,12.7334"/><rect class="cls-1" x="158.5844" y="6.7356" width="9.8256" height="9.8256"/><rect class="cls-1" x="158.856" y="25.6561" width="9.2784" height="46.1245"/><path class="cls-1" d="M210.3423,71.7805h9.2785V42.3076c0-5.1883-1.0906-9.554-4.6375-13.0128a15.9954,15.9954,0,0,0-11.3751-4.182A16.4991,16.4991,0,0,0,191.33,30.2972V25.6561h-9.0986V71.7805H191.51V43.67c0-7.0937,4.3659-10.2771,9.554-10.2771,5.1846,0,9.2786,3.0915,9.2786,10.2771Z"/><polygon class="cls-1" points="272.387 25.657 261.104 25.657 243.186 46.946 243.186 7.008 233.904 7.008 233.904 71.782 243.186 71.782 243.186 58.226 250.008 50.493 262.925 71.782 274.388 71.782 256.375 43.759 272.387 25.657"/><path class="cls-1" d="M362.0337,43.3831V71.7848h4.7482V42.5223c0-5.4141-1.71-9.78-4.7482-12.73-2.8507-2.751-7.0288-4.3657-12.0639-4.3657a17.623,17.623,0,0,0-15.584,8.3564c-2.7473-5.4141-7.9739-8.3564-14.72-8.3564a17.3589,17.3589,0,0,0-13.5828,5.9841V25.997H301.24V71.7848h4.8439V43.3831c0-8.6509,4.7484-13.6785,12.9173-13.6785s12.6377,4.84,12.6377,13.6785V71.7848h4.84V42.5223c0-7.79,5.0389-12.8177,12.921-12.8177,8.1687,0,12.634,4.84,12.634,13.6785"/><path class="cls-1" d="M397.2708,72.353a17.5512,17.5512,0,0,0,12.73-5.0352c4.8439-4.844,5.701-11.8726,5.701-18.4307,0-6.5542-.8571-13.5829-5.701-18.423a18.6033,18.6033,0,0,0-25.4633,0c-4.84,4.84-5.6932,11.8688-5.6932,18.423,0,6.5581.8531,13.5867,5.6932,18.4307a17.5665,17.5665,0,0,0,12.7336,5.0352m-9.5-38.7592a13.5335,13.5335,0,0,1,19,0c3.8,3.8,4.0826,9.9749,4.0826,15.2933,0,5.326-.283,11.4976-4.0826,15.297a13.5238,13.5238,0,0,1-19,0c-3.8-3.7994-4.0826-9.971-4.0826-15.297,0-5.3184.283-11.4938,4.0826-15.2933"/><path class="cls-1" d="M446.7585,25.4273c-5.1269,0-9.596,1.1363-13.5866,6.4586V4.15h-4.84V71.7851h4.84V65.8967c3.9906,5.3145,8.46,6.4586,13.5866,6.4586,4.7521,0,8.8347-1.6185,11.2107-3.9907,4.6566-4.6565,5.8885-12.2553,5.8885-19.4791,0-7.2123-1.2319-14.8188-5.8885-19.4675-2.376-2.38-6.4586-3.9907-11.2107-3.9907m-.6655,42.6541c-11.207,0-12.9211-9.6916-12.9211-19.1959,0-9.4927,1.7141-19.1844,12.9211-19.1844,11.2106,0,12.9208,9.6917,12.9208,19.1844,0,9.5043-1.71,19.1959-12.9208,19.1959"/><rect class="cls-1" x="475.8273" y="4.153" width="5.9803" height="5.9803"/><rect class="cls-1" x="476.3936" y="26.0004" width="4.8439" height="45.784"/><path class="cls-1" d="M501.0867,59.8165V4.15h-4.84V59.9083c0,7.1282,3.6081,11.8765,11.0231,11.8765h4.1744V67.5109h-3.325c-5.4177,0-7.0323-2.5673-7.0323-7.6944"/><rect class="cls-1" x="519.9966" y="4.153" width="5.9803" height="5.9803"/><rect class="cls-1" x="520.5629" y="26.0004" width="4.8439" height="45.784"/><path class="cls-1" d="M546.6792,11.3688h-4.84V25.9963h-6.2712v3.6119h6.2712V59.8158c0,6.933,3.7993,11.9682,11.0194,11.9682h4.1781V67.51h-3.325c-4.8439,0-7.0323-2.85-7.0323-7.5988V29.6082h10.3573V25.9963H546.6792Z"/><path class="cls-1" d="M592.9423,25.9974,579.168,66.0842,565.3939,25.9974h-5.3185l16.7127,45.7878L573.092,81.9475c-1.7141,4.557-3.1375,6.2711-8.3639,6.2711h-1.8022v4.2738h2.2767c3.0417,0,6.3665-.7614,8.6509-2.95a11.8257,11.8257,0,0,0,3.13-5.3145l21.2772-58.2305Z"/></svg>